<?xml version="1.0" encoding="UTF-8" standalone="no"?>
<!-- Created with Inkscape (http://www.inkscape.org/) -->

<svg
   width="152.11719mm"
   height="122.19426mm"
   viewBox="0 0 152.11719 122.19426"
   version="1.1"
   id="svg5"
   xml:space="preserve"
   inkscape:version="1.2.2 (b0a8486541, 2022-12-01)"
   sodipodi:docname="logo_with_text_white.svg"
   inkscape:export-filename="logo.png"
   inkscape:export-xdpi="431.41272"
   inkscape:export-ydpi="431.41272"
   xmlns:inkscape="http://www.inkscape.org/namespaces/inkscape"
   xmlns:sodipodi="http://sodipodi.sourceforge.net/DTD/sodipodi-0.dtd"
   xmlns="http://www.w3.org/2000/svg"
   xmlns:svg="http://www.w3.org/2000/svg"><sodipodi:namedview
     id="namedview7"
     pagecolor="#ffffff"
     bordercolor="#000000"
     borderopacity="0.25"
     inkscape:showpageshadow="2"
     inkscape:pageopacity="0.0"
     inkscape:pagecheckerboard="0"
     inkscape:deskcolor="#d1d1d1"
     inkscape:document-units="mm"
     showgrid="false"
     inkscape:zoom="0.68284215"
     inkscape:cx="156.698"
     inkscape:cy="216.74116"
     inkscape:window-width="1920"
     inkscape:window-height="998"
     inkscape:window-x="0"
     inkscape:window-y="0"
     inkscape:window-maximized="1"
     inkscape:current-layer="layer1" /><defs
     id="defs2" /><g
     inkscape:label="Layer 1"
     inkscape:groupmode="layer"
     id="layer1"
     transform="translate(11.389816)"><path
       style="fill:#ffffff;stroke-width:0.264583"
       d="m 101.9521,121.86316 c -0.22164,-0.1819 -0.95176,-1.10464 -1.62252,-2.05052 -0.670749,-0.94589 -3.980959,-4.57686 -7.356009,-8.06883 -5.74733,-5.94642 -10.74617,-11.954376 -12.04731,-14.479266 -0.24588,-0.47715 -1.13037,-1.88497 -1.96553,-3.12849 -2.73629,-4.07424 -6.07556,-11.38813 -6.07556,-13.30709 0,-0.49699 0.15895,-1.03554 0.35323,-1.19678 0.48478,-0.40233 2.59908,-0.43584 9.65523,-0.15303 l 4.31991,0.17315 -0.14179,-1.15265 c -0.73235,-5.95331 -0.84828,-24.133861 -0.20054,-31.447439 0.14822,-1.67349 0.40036,-5.405377 0.56031,-8.293082 0.32938,-5.946724 0.74077,-8.716684 1.58663,-10.682925 0.88142,-2.048933 1.15959,-2.217203 3.19196,-1.930929 0.94019,0.132432 4.09068,0.374634 7.0011,0.538229 5.064949,0.284699 9.826309,0.965742 10.947739,1.565915 0.28977,0.155077 0.76577,0.281958 1.05779,0.281958 0.29202,0 0.60283,0.116319 0.6907,0.258488 0.2829,0.457745 0.51451,8.389593 0.47918,16.410262 -0.032,7.274089 -0.56307,16.173553 -1.67202,28.021423 -0.25476,2.72178 -0.25,2.76386 0.41059,3.62994 0.76271,0.99996 0.63029,1.00162 4.97036,-0.062 1.42826,-0.35003 3.68341,-0.81216 5.01144,-1.02695 2.10531,-0.34051 2.46866,-0.34158 2.83686,-0.008 0.23249,0.21039 0.67207,0.31685 0.97798,0.23685 0.70617,-0.18467 0.92458,0.17862 0.94279,1.56818 0.022,1.67072 -2.85057,7.1559 -6.98257,13.33371 -3.05851,4.57284 -7.09613,11.717266 -8.66119,15.325696 -1.40653,3.24292 -6.03707,12.45639 -6.36099,12.65658 -0.16822,0.10397 -0.11676,0.47443 0.14099,1.01494 0.57553,1.2069 0.14889,2.30376 -0.89608,2.30376 -0.41235,0 -0.93106,-0.14883 -1.15268,-0.33073 z m 3.14876,-10.39912 c 0.43468,-0.8653 1.35768,-3.00203 2.05111,-4.74828 2.14469,-5.40096 5.00401,-10.793306 9.25956,-17.462506 2.49928,-3.9168 6.2153,-10.23743 6.2153,-10.57169 0,-0.33482 -1.54842,-0.0815 -5.58887,0.9144 -2.36162,0.58208 -4.74913,1.05833 -5.30561,1.05833 -0.97362,0 -1.01177,0.0338 -1.01177,0.89674 0,0.49319 -0.2288,1.1778 -0.50844,1.52135 l -0.50845,0.62462 -0.80024,-0.76347 c -1.64468,-1.56911 -1.68538,-3.26295 -0.43413,-18.06926 1.21499,-14.377312 1.57176,-23.022872 1.17138,-28.385492 -0.168,-2.250128 -0.24103,-4.715338 -0.16229,-5.478248 l 0.14316,-1.38711 -1.68238,0.157102 c -1.7651,0.164827 -14.210429,-0.607365 -15.646399,-0.970807 l -0.833,-0.21083 -0.15025,1.360307 c -0.0826,0.74817 -0.22182,3.205779 -0.30931,5.461352 -0.0875,2.255573 -0.33684,6.660886 -0.55411,9.789583 -0.71384,10.279518 -0.86016,15.836783 -0.62346,23.680213 0.23161,7.67477 0.0859,10.99427 -0.4909,11.18655 -0.16885,0.0563 -0.30701,0.31208 -0.30701,0.56845 0,0.25636 -0.25024,0.69292 -0.55609,0.97013 -0.47613,0.43156 -1.0608,0.5164 -4.06619,0.59003 -2.06391,0.0506 -4.15127,-0.0455 -5.06631,-0.23317 -0.85591,-0.17555 -2.00123,-0.37544 -2.54515,-0.44421 l -0.98894,-0.12504 0.58297,1.41654 c 1.01044,2.45527 3.65169,7.43848 4.81768,9.08947 0.61663,0.87312 1.56187,2.34584 2.10053,3.2727 1.96904,3.3881 5.93761,8.167446 11.77295,14.178166 3.25553,3.35338 6.287549,6.53135 6.737829,7.06216 l 0.81867,0.96511 0.83892,-2.16995 c 0.46141,-1.19348 1.19457,-2.87794 1.62924,-3.74324 z m -62.587957,5.62644 c -3.32331,-3.0277 -8.70291,-7.33092 -16.50065,-13.19909 -3.41442,-2.56953 -8.14787,-6.964246 -11.15173,-10.353736 -2.87108,-3.23966 -5.21804,-6.72172 -5.20235,-7.71845 0.0192,-1.22013 1.21497,-1.94581 3.20632,-1.94581 2.40844,0 5.74138,-0.64192 8.91161,-1.71639 l 3.26281,-1.10583 -0.15244,-1.19063 c -0.41878,-3.27085 -0.6986,-14.14981 -0.66334,-25.789314 0.0216,-7.134678 -0.088,-14.961114 -0.24364,-17.392084 -0.18076,-2.823827 -0.19402,-4.966221 -0.0367,-5.932689 0.13542,-0.832009 0.17546,-1.794629 0.089,-2.139156 -0.30753,-1.225283 1.23415,-2.149054 2.11557,-1.26764 0.33818,0.33818 1.67898,0.38631 9.21317,0.330729 7.3065,-0.0539 8.93073,5.29e-4 9.47884,0.31841 0.36381,0.210905 0.92182,0.3522 1.24003,0.313989 0.31822,-0.03821 0.82423,0.176186 1.124478,0.476436 0.51547,0.515463 0.54597,0.844682 0.54699,5.903719 0.001,6.045671 0.22276,9.463233 1.32499,20.439062 0.4238,4.220108 0.96066,10.649478 1.19304,14.287498 0.73253,11.46825 0.61204,10.51177 1.26643,10.05341 1.03613,-0.72573 1.50613,-0.51908 1.50613,0.66222 0,0.58208 0.12034,1.05833 0.26743,1.05833 0.59859,0 5.31067,-0.8214 7.53778,-1.31397 3.04754,-0.67403 3.20955,-0.66867 3.72849,0.12335 0.40203,0.61357 0.40146,0.71021 -0.008,1.33496 -0.24271,0.37043 -0.73265,0.80626 -1.08876,0.96851 -0.49179,0.22408 -0.64746,0.49987 -0.64746,1.14707 0,0.64392 -0.50965,1.55634 -2.08621,3.73494 -2.46628,3.40805 -9.26791,14.240836 -11.764,18.736236 -2.676428,4.82015 -3.900188,8.3933 -3.193628,9.32475 0.54765,0.72195 0.44448,1.77007 -0.23728,2.41054 -0.90127,0.8467 -1.64375,0.70994 -3.03699,-0.55937 z m 0.92397,-5.9923 c 0.71049,-2.99101 3.43388,-8.22649 8.838198,-16.990676 1.91552,-3.1064 4.04544,-6.4219 4.73316,-7.36779 0.68772,-0.94588 1.46539,-2.05629 1.72815,-2.46757 l 0.47776,-0.74779 -1.03584,0.17811 c -0.56971,0.098 -2.13958,0.40124 -3.48859,0.67395 -2.93203,0.59274 -3.73758,0.47404 -4.81453,-0.70945 -0.44844,-0.4928 -0.9883,-0.896 -1.1997,-0.896 -0.96673,0 -1.23685,-1.16794 -1.4826,-6.41035 -0.279508,-5.96271 -0.878728,-14.30168 -1.431088,-19.915691 -0.93406,-9.493438 -1.18412,-13.609201 -1.18553,-19.513021 l -10e-4,-6.283854 h -8.03672 c -4.4202,0 -8.39354,-0.07136 -8.82965,-0.158586 -0.7378,-0.147561 -0.80214,-0.09697 -0.92526,0.727604 -0.0728,0.487405 0.0275,3.148378 0.22286,5.913274 0.2119,2.999152 0.35736,9.616612 0.36058,16.404166 0.007,15.237878 0.57609,26.141008 1.4763,28.295508 0.40481,0.96885 0.40025,1.06028 -0.0854,1.70987 -0.43699,0.58455 -0.72443,0.68916 -1.93904,0.70568 -0.92637,0.0126 -1.9366,0.2525 -2.8833,0.68471 -2.30389,1.05184 -4.70498,1.7455 -7.20581,2.08172 -1.77931,0.23921 -2.26779,0.3915 -2.11667,0.6599 0.10804,0.19191 1.31925,1.62172 2.69157,3.17735 2.79426,3.16754 7.4993,7.56383 10.55927,9.866376 5.04151,3.79361 10.30347,7.88027 12.49274,9.7024 1.31257,1.09246 2.47286,1.98628 2.57842,1.98628 0.10556,0 0.33154,-0.58775 0.50219,-1.30612 z M -8.789256,20.688462 c -0.703947,-0.286507 -1.438222,-3.859509 -1.813761,-8.825832 -0.09353,-1.236927 -0.336949,-3.3800519 -0.540927,-4.7624999 -0.344689,-2.336133 -0.338259,-2.538986 0.0911,-2.874068 1.649915,-1.287608 5.663123,-2.118487 7.857337,-1.626753 4.02242302,0.901443 5.960649,3.586154 5.188463,7.186736 -0.576818,2.6896089 -2.02788298,5.1939439 -4.295357,7.4131789 -2.542334,2.488248 -5.300755,3.971984 -6.486859,3.489238 z m 4.94949,-4.49658 c 2.321406,-2.21786 3.47371702,-4.154023 4.01425802,-6.7449449 0.456144,-2.186382 -0.0024,-3.223125 -1.90182002,-4.299945 -1.248203,-0.707631 -1.71867,-0.824624 -3.307291,-0.822428 -1.938904,0.0027 -4.172932,0.504791 -4.6148,1.037209 -0.171489,0.206632 -0.137274,0.717576 0.101092,1.509607 0.198176,0.658489 0.556027,3.03317 0.795227,5.2770639 0.568807,5.335914 0.569111,5.336787 1.379614,3.97763 0.927918,-1.556054 1.236859,-1.404297 1.01595,0.499057 -0.127302,1.096836 -0.09355,1.5875 0.109212,1.5875 0.161404,0 1.245256,-0.909335 2.408558,-2.020749 z m 41.967909,3.059879 c -0.72801,-0.572656 -0.93653,-1.653698 -0.38475,-1.994717 0.18243,-0.112747 0.47104,0.04586 0.69373,0.381259 0.20974,0.315881 0.61086,0.574328 0.89138,0.574328 0.74541,0 2.01242,-0.718616 2.3373,-1.325655 0.36771,-0.68708 0.0851,-1.193702 -1.46093,-2.618766 -0.86853,-0.800593 -1.3858,-1.092228 -1.76253,-0.99371 -1.51497,0.396174 -1.65988,-0.637987 -0.31482,-2.246733 1.202,-1.4376449 2.07864,-3.2089909 1.86441,-3.7672669 -0.33598,-0.875557 -3.92502,-0.256683 -4.30861,0.742952 -0.16055,0.418386 0.7088,4.6857949 1.39457,6.8455819 0.45959,1.447413 0.33587,2.040681 -0.42554,2.040681 -0.78525,0 -1.22706,-1.090676 -1.98541,-4.901243 -0.77576,-3.8980909 -0.84956,-5.1529249 -0.30306,-5.1529249 0.20485,0 0.96477,-0.307308 1.68872,-0.682905 1.79588,-0.931736 4.02876,-0.976567 4.96221,-0.09963 1.01351,0.952143 0.84836,2.187943 -0.61035,4.5673589 l -0.61716,1.006695 1.37342,1.234832 c 2.17689,1.957205 2.62423,3.618233 1.37446,5.103501 -0.70974,0.843478 -2.45831,1.817716 -3.28256,1.828924 -0.23504,0.0032 -0.74105,-0.240956 -1.12448,-0.54256 z m 45.733708,-0.09256 c -0.35251,-0.352512 -0.8826,-0.717635 -1.17798,-0.811384 -0.29538,-0.09375 -0.61361,-0.475462 -0.70717,-0.848247 -0.23614,-0.940853 0.0551,-4.577141 0.70545,-8.8070299 0.30162,-1.96183 0.48035,-3.838091 0.39718,-4.169468 -0.20386,-0.812242 0.43326,-1.965169 1.63204,-2.953303 5.73488,-4.727176 13.47005,2.077238 10.30841,9.0680219 -1.57342,3.479037 -4.57101,6.752107 -7.62747,8.328444 -1.94174,1.001435 -2.68155,1.041871 -3.53046,0.192966 z m 3.90483,-2.350235 c 3.01324,-1.81637 6.30445,-6.700132 6.32525,-9.3859209 0.0177,-2.282481 -1.25701,-4.338063 -3.30481,-5.329385 -1.51385,-0.732846 -2.44274,-0.693161 -4.16232,0.177824 -1.65587,0.838716 -1.49604,0.366342 -2.35009,6.945312 -0.93214,7.1804329 -0.94795,7.4610369 -0.41472,7.3621539 0.45552,-0.08447 0.75201,0.250193 1.03571,1.169051 0.1659,0.537321 0.72539,0.354325 2.87098,-0.939035 z m -28.55487,2.14748 c -0.31706,-0.153289 -0.72224,-0.630603 -0.90039,-1.060696 -0.25875,-0.624671 -0.43552,-0.746864 -0.87873,-0.607386 -1.23785,0.389562 -3.35697,0.449826 -4.1915,0.119195 -0.47368,-0.187666 -1.62085,-0.874268 -2.54928,-1.525781 -1.86107,-1.305983 -1.87321,-1.303173 -2.56293,0.593355 -0.40891,1.124389 -1.10029,1.480272 -1.591188,0.819047 -0.21297,-0.286864 -0.31412,-0.703583 -0.22478,-0.926042 0.622588,-1.550231 1.052298,-6.4306989 0.838718,-9.5259749 -0.0884,-1.280877 0.66279,-1.407861 1.31032,-0.221509 0.3832,0.702056 0.46974,1.413632 0.43517,3.5777969 -0.0409,2.559896 -0.0132,2.71015 0.52917,2.867543 0.31478,0.09135 1.36768,0.705101 2.33978,1.363889 1.67681,1.136366 3.89441,1.916162 5.47869,1.926531 l 0.63156,0.0041 -0.18562,-2.528671 c -0.10209,-1.39077 -0.35653,-3.013084 -0.56541,-3.605142 -0.78932,-2.2371439 -0.31009,-3.0251049 2.37377,-3.9030779 3.34468,-1.094147 5.58577,-0.963461 5.39842,0.314796 -0.0692,0.472253 -0.37479,0.612037 -1.93429,0.884846 -2.15929,0.377735 -3.97259,0.983697 -3.95973,1.323248 0.005,0.130876 0.16681,0.896136 0.35968,1.7005749 l 0.35068,1.462616 2.41844,-0.592761 c 1.33014,-0.32602 2.68491,-0.713113 3.01061,-0.860203 1.32055,-0.5963899 1.95242,0.662006 0.73345,1.460701 -0.49389,0.323612 -5.23816,1.697238 -5.86196,1.697238 -0.16004,0 -0.10309,2.578557 0.0667,3.02107 0.23394,0.609652 0.83941,0.525896 3.70997,-0.513202 2.99412,-1.083829 3.65243,-0.928611 2.13425,0.503221 -2.07036,1.952602 -5.16317,2.980212 -6.71359,2.230644 z m 56.996959,-0.310587 c -0.77967,-0.722574 -1.28288,-1.633209 -2.08042,-3.764825 -0.51593,-1.378946 -0.60287,-1.477225 -0.92142,-1.041585 -0.19345,0.264565 -0.66023,1.407358 -1.03728,2.539545 -0.75084,2.254559 -1.1104,2.711902 -2.0296,2.58155 -0.78039,-0.110667 -1.12928,-1.151104 -1.47541,-4.399849 -0.20164,-1.892595 -0.3765,-2.546348 -0.75679,-2.829336 -0.45685,-0.339966 -0.46363,-0.424632 -0.0888,-1.110562 0.51294,-0.9387919 1.43447,-1.1094509 1.84534,-0.341741 0.16637,0.310861 0.43523,1.616805 0.59746,2.902093 l 0.29497,2.336891 0.58299,-1.43442 c 0.89033,-2.190601 1.33626,-2.750157 2.19174,-2.750157 0.98588,0 1.44022,0.549971 2.52992,3.062471 1.17084,2.699546 1.78269,3.424007 2.54652,3.01521 1.01139,-0.541271 1.30847,-1.819852 1.30847,-5.6313 0,-3.1146459 0.059,-3.5928139 0.49215,-3.9847679 0.89905,-0.813628 2.45769,0.218128 1.61004,1.065779 -0.16097,0.160967 -0.30094,1.7228949 -0.33073,3.6909369 -0.0444,2.929119 -0.13512,3.581163 -0.64138,4.608284 -1.01602,2.061405 -3.24582,2.775759 -4.63773,1.485783 z M 6.845513,18.504454 c -0.91532,-0.55815 -1.69367,-2.190769 -1.69367,-3.552518 0,-1.013431 0.9884,-3.116896 2.04162,-4.344883 0.49335,-0.575207 1.04223,-0.8998399 1.66254,-0.9833159 0.50933,-0.06854 1.41315,-0.25735 2.00849,-0.419584 2.35701,-0.64229 4.87068,1.0090359 4.87068,3.1997329 0,2.026252 -1.99141,5.064565 -3.98664,6.082454 -1.35934,0.693484 -3.78081,0.702429 -4.90302,0.01812 z m 3.84542,-1.473576 c 1.08698,-0.562102 2.77613,-2.584291 3.13987,-3.758947 0.27313,-0.882047 0.24982,-1.097608 -0.18099,-1.673884 -0.42203,-0.564528 -0.7046,-0.660855 -1.92824,-0.657349 -1.06796,0.0031 -1.6207,0.151167 -2.16654,0.580527 -0.40304,0.317032 -0.88618,0.517562 -1.07365,0.445625 -0.39524,-0.151667 -1.16522,0.923724 -1.50188,2.097578 -0.32442,1.131189 0.15786,2.788616 0.89819,3.086759 0.88593,0.356774 1.98124,0.309933 2.81324,-0.120309 z m 87.406158,1.242015 c -1.10761,-0.8656 -1.46831,-2.280867 -1.25813,-4.936443 0.18429,-2.328538 0.21858,-2.425116 1.21457,-3.4210969 0.85808,-0.858089 1.14339,-0.996429 1.75275,-0.849895 0.400319,0.09626 1.156079,0.269433 1.679479,0.384821 1.82282,0.401862 3.15157,1.8846059 3.14682,3.5115069 -0.003,1.196603 -1.05787,3.344163 -2.14783,4.374723 -1.50763,1.425474 -3.278289,1.803357 -4.387659,0.936384 z m 3.629529,-2.659721 c 1.16361,-1.411666 1.47759,-2.546179 0.93417,-3.375534 -0.7324,-1.117791 -2.63545,-1.548215 -3.411959,-0.771705 -0.64049,0.640487 -1.04226,3.090985 -0.70943,4.32701 0.15636,0.580686 0.43102,1.106331 0.61034,1.168098 0.62421,0.215001 1.792219,-0.395946 2.576879,-1.347869 z m 23.50199,2.476119 c -0.23691,-0.519949 -0.12612,-1.659242 0.54531,-5.607911 0.46344,-2.7254679 0.97155,-5.1107449 1.12911,-5.3006149 0.60124,-0.724435 1.2678,-0.333669 2.68324,1.573011 3.29057,4.4325939 8.71583,8.3308919 9.33792,6.7097369 0.0776,-0.202327 -0.11758,-1.779906 -0.43384,-3.50573 -0.69832,-3.8106909 -0.60658,-6.6061969 0.27659,-8.4306019 0.63667,-1.315183 1.4386,-1.957826 1.67484,-1.342168 0.0774,0.201774 -0.0297,1.181815 -0.23812,2.177871 -0.50816,2.428737 -0.47847,3.794984 0.16325,7.5129619 0.62153,3.601137 0.4627,4.934443 -0.65929,5.534921 -2.12693,1.138303 -6.90097,-1.508229 -10.34309,-5.7338 -1.29805,-1.593493 -1.28284,-1.602235 -1.70545,0.979413 -0.88091,5.380851 -1.66034,7.123169 -2.43047,5.432911 z M 22.575523,17.944056 c -1.52175,-0.804003 -2.68235,-3.902136 -2.92244,-7.801217 -0.0727,-1.1802029 -0.0204,-1.3316159 0.48399,-1.4035509 0.60572,-0.08638 0.73211,0.272155 1.4384,4.0805099 0.6752,3.640763 2.11769,4.698387 3.86253,2.831995 1.52025,-1.626153 2.29534,-3.571246 2.45883,-6.1704129 0.13097,-2.08212 0.18572,-2.255242 0.73796,-2.333662 0.32807,-0.04659 0.64543,0.07248 0.70523,0.264584 0.0598,0.192108 0.49031,1.837568 0.95668,3.6565779 0.46637,1.819011 1.01222,3.570995 1.213,3.893298 0.52325,0.839948 0.46705,1.662953 -0.11354,1.662953 -0.82713,0 -1.40254,-0.639368 -1.90128,-2.112613 l -0.48245,-1.425092 -0.38647,0.908959 c -0.89617,2.107729 -3.43942,4.511379 -4.72869,4.469135 -0.19629,-0.0064 -0.79108,-0.241091 -1.32175,-0.521464 z"
       id="path875" /></g></svg>
